<svg width="166" height="35" viewBox="0 0 166 35" fill="none" xmlns="http://www.w3.org/2000/svg">
<path d="M10.1201 13.4388L10.1009 27.0266C10.1009 30.2968 13.4608 31.7988 15.8864 30.0307L28.6031 20.7778C30.8367 19.1553 30.5231 15.8915 28.0335 14.6937L9.19847 5.46613C6.15209 4.05919 3.91211 6.04919 3.91211 8.74267V11.1003" stroke="url(#paint0_linear_605_966)" stroke-width="4.76299" stroke-miterlimit="10" stroke-linecap="round" stroke-linejoin="round"/>
<path d="M51.9479 8.44783C52.215 7.44104 53.1262 6.74007 54.1679 6.74007C55.6796 6.74007 56.7791 8.17534 56.3855 9.63497L51.4712 27.8569C50.8912 30.0076 48.9406 31.5019 46.713 31.5019C44.4854 31.5019 42.5348 30.0076 41.9547 27.8569L37.097 9.84456C36.6749 8.27925 37.8539 6.74007 39.4752 6.74007C40.5957 6.74007 41.5749 7.49633 41.8583 8.5804L46.0417 24.5882C46.2597 25.4224 47.4431 25.4246 47.6643 24.5913L51.9479 8.44783Z" fill="#050023"/>
<path d="M61.6807 31.5019C60.3046 31.5019 59.1891 30.3863 59.1891 29.0102V9.23173C59.1891 7.85562 60.3046 6.74007 61.6807 6.74007C63.0568 6.74007 64.1724 7.85562 64.1724 9.23173V29.0102C64.1724 30.3863 63.0568 31.5019 61.6807 31.5019Z" fill="#050023"/>
<path d="M73.1084 31.8198C72.1576 31.8198 71.1509 31.7361 70.0882 31.5688C69.5539 31.4847 69.0464 31.3822 68.5658 31.2614C67.7449 31.0551 67.2191 30.2868 67.2191 29.4403C67.2191 28.0703 68.5578 27.103 69.9057 27.3485C70.9613 27.5409 71.9953 27.637 73.0078 27.637C75.7707 27.637 77.1521 26.661 77.1521 24.7091C77.1521 24.1849 77.0515 23.7387 76.8501 23.3706C76.6488 23.0025 76.3076 22.6735 75.8266 22.3835C75.3456 22.0823 74.6745 21.7868 73.8131 21.4968L72.1353 20.9446C70.4014 20.3535 69.0424 19.4779 68.058 18.3179C67.0848 17.1579 66.5982 15.6855 66.5982 13.9009C66.5982 12.3394 66.945 11.0009 67.6385 9.88549C68.3321 8.77009 69.3668 7.91681 70.7426 7.32565C72.1297 6.72334 73.8411 6.42218 75.8769 6.42218C76.8165 6.42218 77.7226 6.47795 78.5951 6.58949C78.9024 6.62827 79.1968 6.67245 79.4783 6.72202C80.3482 6.87516 80.9274 7.66305 80.9274 8.54628C80.9274 9.88755 79.6231 10.8558 78.2899 10.7087C77.6632 10.6395 77.0155 10.6049 76.3467 10.6049C73.1923 10.6049 71.6151 11.5753 71.6151 13.5161C71.6151 14.018 71.7046 14.4419 71.8836 14.7877C72.0625 15.1334 72.3646 15.4457 72.7896 15.7246C73.2259 15.9923 73.8355 16.26 74.6185 16.5277L76.2796 17.0798C78.1924 17.7267 79.6466 18.6246 80.6421 19.7735C81.6489 20.9112 82.1522 22.4114 82.1522 24.2741C82.1522 25.8245 81.7943 27.1686 81.0784 28.3063C80.3737 29.4328 79.3446 30.3028 77.9911 30.9163C76.6376 31.5186 75.01 31.8198 73.1084 31.8198Z" fill="#050023"/>
<path d="M100.255 31.5019C99.1798 31.5019 98.2407 30.7754 97.9707 29.7349L96.8641 25.4711C96.7681 25.1012 96.4342 24.843 96.052 24.843H89.6653C89.2832 24.843 88.9493 25.1012 88.8533 25.4711L87.7405 29.759C87.4741 30.7853 86.5478 31.5019 85.4875 31.5019C83.9524 31.5019 82.8377 30.042 83.2421 28.5611L88.2285 10.301C88.8026 8.19846 90.7127 6.74007 92.8922 6.74007C95.0718 6.74007 96.9818 8.19847 97.556 10.301L102.531 28.5204C102.941 30.0217 101.811 31.5019 100.255 31.5019ZM90.3773 19.5784C90.2404 20.1093 90.6413 20.6268 91.1896 20.6268H94.5093C95.0581 20.6268 95.4592 20.1084 95.3213 19.5772L93.6564 13.1593C93.439 12.3209 92.2483 12.3218 92.032 13.1605L90.3773 19.5784Z" fill="#050023"/>
<path d="M116.275 8.44783C116.542 7.44104 117.453 6.74007 118.495 6.74007C120.007 6.74007 121.106 8.17534 120.713 9.63496L115.798 27.8569C115.218 30.0076 113.268 31.5019 111.04 31.5019C108.813 31.5019 106.862 30.0076 106.282 27.8569L101.424 9.84455C101.002 8.27925 102.181 6.74007 103.802 6.74007C104.923 6.74007 105.902 7.49633 106.185 8.5804L110.369 24.5882C110.587 25.4224 111.77 25.4246 111.991 24.5913L116.275 8.44783Z" fill="#050023"/>
<path d="M127.744 26.3965C127.744 26.8599 128.12 27.2355 128.583 27.2355H136.031C137.209 27.2355 138.164 28.1905 138.164 29.3687C138.164 30.5468 137.209 31.5019 136.031 31.5019H129.577C125.859 31.5019 122.845 28.488 122.845 24.7701V13.4718C122.845 9.75398 125.859 6.74007 129.577 6.74007H135.863C137.041 6.74007 137.996 7.69513 137.996 8.87327C137.996 10.0514 137.041 11.0065 135.863 11.0065H128.583C128.12 11.0065 127.744 11.3821 127.744 11.8454V15.8728C127.744 16.3361 128.12 16.7117 128.583 16.7117H134.185C135.363 16.7117 136.318 17.6668 136.318 18.8449C136.318 20.023 135.363 20.9781 134.185 20.9781H128.583C128.12 20.9781 127.744 21.3537 127.744 21.817V26.3965Z" fill="#050023"/>
<path d="M155.017 31.5019C154.252 31.5019 153.541 31.1101 153.133 30.4638L148.241 22.7214C148.102 22.5006 147.859 22.3668 147.598 22.3668C147.242 22.3668 146.815 22.3574 146.314 22.3387C145.835 22.3208 145.433 22.7019 145.433 23.1817V29.0522C145.433 30.4051 144.336 31.5019 142.983 31.5019C141.63 31.5019 140.534 30.4051 140.534 29.0522V7.8386C140.534 7.44208 140.811 7.09859 141.201 7.02437C143.249 6.63406 145.297 6.43891 147.346 6.43891C150.657 6.43891 153.135 7.09699 154.779 8.41316C156.434 9.72933 157.262 11.7147 157.262 14.3694C157.273 16.1094 156.876 17.5817 156.071 18.7864C155.388 19.8218 154.449 20.6347 153.254 21.2252C152.945 21.3779 152.821 21.7652 153.008 22.0549L156.889 28.065C157.846 29.5477 156.782 31.5019 155.017 31.5019ZM145.433 17.5653C145.433 18.0005 145.766 18.3651 146.2 18.3912C146.685 18.4204 147.145 18.435 147.581 18.435C149.27 18.435 150.517 18.1171 151.322 17.4813C152.139 16.8456 152.547 15.8138 152.547 14.3861C152.547 13.003 152.167 11.9824 151.406 11.3243C150.657 10.6551 149.516 10.3205 147.983 10.3205C147.377 10.3205 146.764 10.3555 146.145 10.4256C145.734 10.4721 145.433 10.8263 145.433 11.2399V17.5653Z" fill="#050023"/>
<defs>
<linearGradient id="paint0_linear_605_966" x1="2.46238" y1="33.882" x2="34.0093" y2="16.2003" gradientUnits="userSpaceOnUse">
<stop stop-color="#C22EFF"/>
<stop offset="1" stop-color="#4378E5"/>
</linearGradient>
</defs>
</svg>
